<?xml version="1.0" standalone="no"?>
<!DOCTYPE svg PUBLIC "-//W3C//DTD SVG 20010904//EN"
 "http://www.w3.org/TR/2001/REC-SVG-20010904/DTD/svg10.dtd">
<svg version="1.0" xmlns="http://www.w3.org/2000/svg"
 width="500.000000pt" height="500.000000pt" viewBox="0 0 500.000000 500.000000"
 preserveAspectRatio="xMidYMid meet">

<g transform="translate(0.000000,500.000000) scale(0.100000,-0.100000)"
fill="#000000" stroke="none">
<path d="M2132 4586 c-205 -52 -372 -218 -428 -426 -27 -102 -23 -270 10 -390
121 -439 173 -714 212 -1125 20 -213 15 -583 -10 -688 -41 -179 -153 -311
-299 -352 -162 -46 -359 65 -501 285 -71 108 -159 296 -210 447 -43 131 -44
132 -50 90 -34 -241 -32 -620 3 -783 85 -394 318 -594 696 -597 314 -3 564
135 696 384 92 173 117 260 126 430 l6 126 -66 31 c-97 45 -145 100 -218 248
-34 69 -59 127 -57 129 3 3 19 -15 36 -39 46 -63 157 -171 222 -214 30 -20 95
-54 144 -75 158 -68 227 -124 272 -222 22 -47 24 -48 25 -20 0 17 3 39 5 50 3
11 6 112 6 225 1 156 -2 222 -15 275 -19 84 -83 240 -143 352 -40 73 -44 88
-44 150 -1 137 -42 288 -109 401 -48 82 -100 148 -207 266 -206 225 -260 306
-289 428 -35 150 -14 230 90 335 54 53 71 64 134 84 137 41 292 9 394 -81 130
-114 159 -366 61 -522 -13 -21 -22 -38 -19 -38 2 0 30 11 62 25 75 34 117 67
159 125 38 54 74 71 293 146 l114 39 -44 8 c-283 52 -311 67 -415 224 -91 137
-203 220 -349 258 -84 22 -228 28 -293 11z"/>
<path d="M2240 4208 c-166 -48 -189 -284 -35 -358 161 -78 329 82 260 248 -38
90 -133 137 -225 110z m118 -164 c29 -33 28 -69 -3 -99 -64 -65 -170 15 -120
91 32 49 82 52 123 8z"/>
<path d="M4075 2243 c-426 -150 -495 -176 -491 -180 4 -4 648 16 653 21 4 3
25 206 21 214 -1 5 -84 -19 -183 -55z"/>
<path d="M2500 1998 c0 -12 -45 -255 -75 -408 -37 -190 -39 -239 -10 -284 21
-32 57 -46 118 -46 94 0 97 3 97 80 0 59 -2 68 -20 73 -11 3 -22 11 -25 19 -3
7 15 110 39 228 l45 215 -43 40 c-36 34 -126 93 -126 83z"/>
<path d="M3837 1989 c-129 -30 -242 -152 -282 -304 -17 -68 -20 -193 -4 -248
13 -47 63 -106 106 -123 74 -31 179 -10 251 51 18 15 35 26 37 23 9 -8 -34
-140 -59 -183 -56 -95 -189 -111 -296 -35 -15 11 -30 20 -33 20 -2 0 -21 -28
-42 -62 -44 -71 -46 -68 65 -122 59 -28 73 -31 160 -30 102 0 142 12 214 62
52 36 108 124 129 203 13 49 147 721 147 736 0 2 -33 3 -74 3 l-74 0 -13 -32
c-7 -18 -14 -35 -16 -37 -1 -2 -19 12 -38 32 -32 33 -88 58 -125 56 -8 -1 -32
-5 -53 -10z m133 -176 c36 -30 36 -30 6 -191 -15 -84 -36 -117 -92 -149 -50
-29 -86 -29 -120 0 -23 20 -28 34 -32 84 -13 189 132 345 238 256z"/>
<path d="M2877 1958 c-3 -13 -25 -117 -48 -233 -49 -244 -55 -341 -24 -395 56
-96 213 -92 327 9 20 17 38 31 42 31 3 0 6 -20 6 -45 l0 -45 74 0 75 0 10 53
c19 97 110 572 117 610 l6 37 -90 0 c-78 0 -91 -2 -96 -17 -3 -10 -21 -103
-41 -208 -19 -104 -38 -202 -41 -217 -6 -31 -82 -105 -117 -113 -40 -10 -69
-2 -90 27 l-20 27 47 235 c25 129 46 242 46 250 0 13 -15 16 -89 16 -84 0 -89
-1 -94 -22z"/>
<path d="M1428 893 c16 -6 16 -105 0 -121 -9 -9 -9 -12 0 -12 28 0 52 40 52
85 0 38 3 45 20 45 17 0 20 -7 20 -44 0 -26 -5 -46 -12 -49 -7 -3 13 -6 44 -6
55 -1 84 13 58 29 -9 5 -10 19 -6 44 l7 36 -98 -1 c-54 0 -92 -3 -85 -6z m158
-14 c10 -17 -13 -36 -27 -22 -12 12 -4 33 11 33 5 0 12 -5 16 -11z m2 -51 c17
-17 15 -28 -7 -28 -22 0 -35 15 -26 30 8 13 18 13 33 -2z"/>
<path d="M1650 880 c-26 -26 -25 -55 2 -74 29 -21 104 -21 112 -1 6 17 -5 20
-21 4 -19 -19 -57 -6 -67 24 -8 21 -6 31 7 44 14 15 22 15 47 6 25 -9 30 -9
30 3 0 23 -85 19 -110 -6z"/>
<path d="M1828 893 c7 -3 12 -23 12 -48 0 -25 -5 -45 -12 -48 -7 -3 48 -5 122
-5 74 0 129 2 123 5 -14 5 -18 53 -5 53 5 0 21 -13 37 -30 42 -44 55 -39 55
20 0 43 3 50 20 50 16 0 20 -7 20 -38 0 -48 14 -62 62 -62 42 0 58 19 58 69 0
38 18 40 49 7 l22 -23 -31 -27 -32 -26 31 0 c21 0 31 5 31 15 0 8 5 15 10 15
6 0 10 -7 10 -15 0 -10 11 -15 35 -15 l34 0 -24 26 c-32 35 -31 50 3 68 25 14
21 15 -78 15 -58 0 -99 -3 -92 -6 16 -6 15 -68 -2 -82 -24 -20 -46 -2 -46 39
0 21 6 41 13 43 6 3 -22 5 -63 5 -41 0 -69 -2 -62 -5 6 -2 12 -16 12 -30 l0
-25 -39 31 c-35 28 -46 31 -102 30 -35 0 -58 -3 -51 -6 14 -5 17 -93 3 -93 -5
0 -11 6 -14 13 -3 9 -7 9 -20 -2 -26 -21 -47 -6 -47 32 0 18 5 38 12 45 9 9 3
12 -27 11 -22 0 -34 -3 -27 -6z m212 -48 c0 -38 -3 -45 -20 -45 -17 0 -20 7
-20 45 0 38 3 45 20 45 17 0 20 -7 20 -45z m380 35 c0 -5 -2 -10 -4 -10 -3 0
-8 5 -11 10 -3 6 -1 10 4 10 6 0 11 -4 11 -10z"/>
<path d="M2528 888 c7 -7 12 -26 12 -43 0 -39 16 -55 55 -55 39 0 55 16 55 55
0 17 5 36 12 43 9 9 4 12 -22 12 -29 -1 -32 -2 -17 -11 21 -12 22 -48 3 -75
-12 -15 -18 -17 -33 -8 -22 13 -29 60 -12 80 10 12 5 14 -27 14 -30 0 -35 -3
-26 -12z"/>
<path d="M2689 884 c-12 -14 -9 -20 19 -44 17 -14 32 -30 32 -33 0 -13 -23 -7
-43 11 -19 16 -19 16 -16 -3 3 -15 13 -21 40 -23 60 -5 77 42 23 66 -27 13
-32 32 -9 32 8 0 15 -4 15 -10 0 -5 5 -10 10 -10 6 0 10 7 10 15 0 21 -63 20
-81 -1z"/>
<path d="M2799 854 c2 -32 -1 -49 -10 -55 -9 -5 9 -9 48 -9 64 0 84 14 54 37
-12 9 -14 16 -5 30 18 31 6 43 -44 43 l-47 0 4 -46z m74 29 c8 -7 -11 -33 -24
-33 -5 0 -9 9 -9 20 0 19 20 27 33 13z m-1 -57 c20 -15 14 -26 -14 -26 -11 0
-18 7 -18 20 0 23 8 25 32 6z"/>
<path d="M2918 893 c7 -3 12 -23 12 -48 0 -25 -5 -45 -12 -48 -7 -3 3 -6 24
-6 33 -1 36 1 31 22 l-6 22 25 -22 c13 -13 33 -23 43 -23 18 0 18 1 -2 21 -17
17 -19 26 -11 39 22 35 3 50 -59 49 -32 0 -52 -3 -45 -6z m78 -14 c10 -17 -13
-36 -27 -22 -12 12 -4 33 11 33 5 0 12 -5 16 -11z"/>
<path d="M3118 886 c-25 -18 -24 -72 1 -86 30 -16 111 -13 111 4 0 8 3 21 6
30 5 13 -1 16 -32 16 -30 0 -35 -3 -26 -12 18 -18 14 -38 -8 -38 -24 0 -43 34
-35 60 9 29 51 37 75 15 19 -17 20 -17 20 3 0 20 -5 22 -47 22 -27 0 -56 -7
-65 -14z"/>
<path d="M3258 888 c7 -7 12 -26 12 -43 0 -17 -5 -36 -12 -43 -9 -9 -4 -12 26
-12 33 0 37 2 26 15 -7 9 -10 18 -6 22 3 4 13 -3 22 -15 9 -13 26 -22 41 -22
l26 0 -23 25 c-19 20 -21 27 -10 40 22 26 -5 45 -63 45 -40 0 -48 -3 -39 -12z
m72 -24 c0 -8 -7 -14 -15 -14 -15 0 -21 21 -9 33 10 9 24 -2 24 -19z"/>
<path d="M3410 880 c-11 -11 -20 -27 -20 -35 0 -28 38 -55 78 -55 63 0 95 56
54 93 -26 24 -87 22 -112 -3z m79 -4 c7 -8 11 -27 9 -43 -4 -39 -48 -40 -62
-1 -16 44 25 77 53 44z"/>
<path d="M3558 888 c7 -7 12 -29 12 -49 0 -40 11 -49 60 -49 34 0 47 15 52 60
2 27 7 35 23 35 15 0 21 -8 23 -33 2 -18 -2 -40 -9 -48 -10 -12 -5 -14 27 -13
22 0 33 3 27 6 -23 9 -14 30 16 36 32 7 47 33 30 53 -8 10 -37 14 -97 14 -73
0 -83 -2 -68 -13 12 -9 17 -23 14 -41 -4 -37 -30 -55 -52 -37 -19 16 -21 77
-3 84 6 3 -6 6 -27 6 -31 1 -37 -2 -28 -11z m227 -21 c0 -26 -20 -25 -23 2 -3
16 1 22 10 19 7 -3 13 -12 13 -21z"/>
</g>
</svg>
